<svg width="693" height="140" viewBox="0 0 693 140" fill="none" xmlns="http://www.w3.org/2000/svg">
<path d="M203.32 113.152C199.309 113.152 195.384 112.811 191.544 112.128C187.704 111.445 184.12 110.464 180.792 109.184C177.549 107.904 174.605 106.283 171.96 104.32C170.936 103.552 170.211 102.699 169.784 101.76C169.443 100.736 169.357 99.7547 169.528 98.816C169.784 97.792 170.211 96.9387 170.808 96.256C171.491 95.5733 172.301 95.1893 173.24 95.104C174.179 95.0187 175.203 95.3173 176.312 96C180.152 98.7307 184.248 100.736 188.6 102.016C192.952 103.211 197.859 103.808 203.32 103.808C211 103.808 216.675 102.4 220.344 99.584C224.099 96.6827 225.976 92.8853 225.976 88.192C225.976 84.352 224.611 81.3653 221.88 79.232C219.235 77.0133 214.755 75.264 208.44 73.984L195.128 71.296C187.107 69.5893 181.091 66.816 177.08 62.976C173.155 59.0507 171.192 53.8453 171.192 47.36C171.192 43.3493 172.003 39.7227 173.624 36.48C175.245 33.152 177.507 30.336 180.408 28.032C183.309 25.6427 186.765 23.808 190.776 22.528C194.787 21.248 199.224 20.608 204.088 20.608C209.464 20.608 214.456 21.376 219.064 22.912C223.757 24.3627 227.981 26.5813 231.736 29.568C232.675 30.336 233.315 31.232 233.656 32.256C233.997 33.1947 234.04 34.1333 233.784 35.072C233.528 35.9253 233.059 36.6507 232.376 37.248C231.779 37.8453 230.968 38.1867 229.944 38.272C229.005 38.3573 227.939 38.016 226.744 37.248C223.331 34.688 219.789 32.8533 216.12 31.744C212.451 30.5493 208.397 29.952 203.96 29.952C199.437 29.952 195.512 30.6347 192.184 32C188.941 33.3653 186.381 35.3707 184.504 38.016C182.712 40.576 181.816 43.5627 181.816 46.976C181.816 51.072 183.053 54.3147 185.528 56.704C188.088 59.0933 192.227 60.8427 197.944 61.952L211.256 64.768C219.875 66.56 226.232 69.2907 230.328 72.96C234.509 76.544 236.6 81.4507 236.6 87.68C236.6 91.4347 235.832 94.8907 234.296 98.048C232.76 101.205 230.541 103.936 227.64 106.24C224.739 108.459 221.24 110.165 217.144 111.36C213.048 112.555 208.44 113.152 203.32 113.152ZM256.598 112.896C254.891 112.896 253.611 112.427 252.758 111.488C251.905 110.549 251.478 109.227 251.478 107.52V26.112C251.478 24.4053 251.905 23.1253 252.758 22.272C253.611 21.3333 254.891 20.864 256.598 20.864C258.219 20.864 259.499 21.3333 260.438 22.272C261.377 23.1253 261.846 24.4053 261.846 26.112V77.44H262.102L288.342 52.352C289.537 51.2427 290.561 50.3893 291.414 49.792C292.353 49.1947 293.59 48.896 295.126 48.896C296.491 48.896 297.558 49.28 298.326 50.048C299.094 50.7307 299.435 51.6267 299.35 52.736C299.35 53.76 298.838 54.8693 297.814 56.064L269.91 82.56V76.928L300.246 105.472C301.441 106.667 302.038 107.819 302.038 108.928C302.038 110.037 301.611 110.976 300.758 111.744C299.99 112.512 298.966 112.896 297.686 112.896C296.15 112.896 294.913 112.597 293.974 112C293.035 111.317 291.883 110.336 290.518 109.056L262.102 82.816H261.846V107.52C261.846 111.104 260.097 112.896 256.598 112.896ZM327.302 135.936C326.022 135.936 324.998 135.595 324.23 134.912C323.462 134.229 322.993 133.291 322.822 132.096C322.737 130.987 322.95 129.835 323.462 128.64L332.294 108.8V113.28L307.718 56.192C307.206 54.912 307.035 53.7173 307.206 52.608C307.377 51.4987 307.889 50.6027 308.742 49.92C309.595 49.2373 310.79 48.896 312.326 48.896C313.691 48.896 314.758 49.1947 315.526 49.792C316.294 50.3893 316.977 51.456 317.574 52.992L338.566 104.448H335.11L356.358 52.992C357.041 51.456 357.766 50.3893 358.534 49.792C359.302 49.1947 360.411 48.896 361.862 48.896C363.227 48.896 364.251 49.2373 364.934 49.92C365.702 50.6027 366.129 51.4987 366.214 52.608C366.385 53.632 366.214 54.784 365.702 56.064L332.934 131.84C332.251 133.376 331.483 134.443 330.63 135.04C329.862 135.637 328.753 135.936 327.302 135.936ZM386.012 112C384.305 112 382.983 111.531 382.044 110.592C381.105 109.568 380.636 108.203 380.636 106.496V26.624C380.636 24.832 381.063 23.4667 381.916 22.528C382.855 21.5893 384.177 21.12 385.884 21.12C387.591 21.12 388.871 21.5893 389.724 22.528C390.663 23.4667 391.132 24.832 391.132 26.624V102.784H433.116C434.652 102.784 435.847 103.211 436.7 104.064C437.553 104.832 437.98 105.941 437.98 107.392C437.98 108.843 437.553 109.995 436.7 110.848C435.847 111.616 434.652 112 433.116 112H386.012ZM476.135 113.152C469.564 113.152 463.89 111.872 459.111 109.312C454.418 106.667 450.748 102.955 448.103 98.176C445.543 93.3973 444.263 87.68 444.263 81.024C444.263 74.5387 445.543 68.9067 448.103 64.128C450.663 59.264 454.162 55.4667 458.599 52.736C463.122 50.0053 468.327 48.64 474.215 48.64C478.396 48.64 482.151 49.3653 485.479 50.816C488.807 52.1813 491.623 54.1867 493.927 56.832C496.316 59.4773 498.108 62.6773 499.303 66.432C500.583 70.1867 501.223 74.4107 501.223 79.104C501.223 80.4693 500.839 81.4933 500.071 82.176C499.303 82.7733 498.194 83.072 496.743 83.072H452.199V76.288H494.311L492.263 77.952C492.263 73.344 491.58 69.4613 490.215 66.304C488.85 63.0613 486.844 60.5867 484.199 58.88C481.639 57.1733 478.396 56.32 474.471 56.32C470.119 56.32 466.407 57.344 463.335 59.392C460.348 61.3547 458.087 64.128 456.551 67.712C455.015 71.2107 454.247 75.3067 454.247 80V80.768C454.247 88.6187 456.124 94.592 459.879 98.688C463.719 102.784 469.138 104.832 476.135 104.832C479.036 104.832 481.895 104.448 484.711 103.68C487.612 102.912 490.428 101.632 493.159 99.84C494.354 99.072 495.42 98.7307 496.359 98.816C497.383 98.816 498.194 99.1147 498.791 99.712C499.388 100.224 499.772 100.907 499.943 101.76C500.199 102.528 500.114 103.381 499.687 104.32C499.346 105.259 498.62 106.069 497.511 106.752C494.695 108.8 491.367 110.379 487.527 111.488C483.687 112.597 479.89 113.152 476.135 113.152ZM535.812 113.152C531.545 113.152 527.705 112.341 524.292 110.72C520.964 109.013 518.319 106.709 516.356 103.808C514.393 100.907 513.412 97.664 513.412 94.08C513.412 89.472 514.564 85.8453 516.868 83.2C519.257 80.5547 523.14 78.6773 528.516 77.568C533.977 76.4587 541.401 75.904 550.788 75.904H556.548V82.688H550.916C544.004 82.688 538.543 83.0293 534.532 83.712C530.607 84.3093 527.833 85.376 526.212 86.912C524.676 88.448 523.908 90.624 523.908 93.44C523.908 96.9387 525.103 99.7973 527.492 102.016C529.967 104.235 533.295 105.344 537.476 105.344C540.889 105.344 543.876 104.533 546.436 102.912C549.081 101.291 551.129 99.072 552.58 96.256C554.116 93.44 554.884 90.1973 554.884 86.528V71.936C554.884 66.6453 553.817 62.848 551.684 60.544C549.551 58.1547 546.052 56.96 541.188 56.96C538.201 56.96 535.215 57.344 532.228 58.112C529.241 58.88 526.084 60.1173 522.756 61.824C521.561 62.4213 520.537 62.6347 519.684 62.464C518.831 62.208 518.148 61.7387 517.636 61.056C517.124 60.3733 516.825 59.6053 516.74 58.752C516.655 57.8133 516.825 56.9173 517.252 56.064C517.764 55.2107 518.532 54.528 519.556 54.016C523.311 52.1387 527.023 50.7733 530.692 49.92C534.361 49.0667 537.86 48.64 541.188 48.64C546.564 48.64 551.001 49.536 554.5 51.328C557.999 53.0347 560.601 55.68 562.308 59.264C564.015 62.7627 564.868 67.2853 564.868 72.832V107.52C564.868 109.227 564.441 110.549 563.588 111.488C562.82 112.427 561.668 112.896 560.132 112.896C558.511 112.896 557.273 112.427 556.42 111.488C555.567 110.549 555.14 109.227 555.14 107.52V97.536H556.292C555.609 100.779 554.287 103.552 552.324 105.856C550.447 108.16 548.1 109.952 545.284 111.232C542.468 112.512 539.311 113.152 535.812 113.152ZM589.351 112.896C587.644 112.896 586.322 112.427 585.383 111.488C584.53 110.549 584.103 109.227 584.103 107.52V54.144C584.103 52.4373 584.53 51.1573 585.383 50.304C586.236 49.3653 587.474 48.896 589.095 48.896C590.716 48.896 591.954 49.3653 592.807 50.304C593.746 51.1573 594.215 52.4373 594.215 54.144V64.512H592.935C594.3 59.4773 596.903 55.5947 600.743 52.864C604.583 50.1333 609.319 48.6827 614.951 48.512C616.231 48.4267 617.255 48.7253 618.023 49.408C618.791 50.0053 619.218 51.072 619.303 52.608C619.388 54.0587 619.047 55.2107 618.279 56.064C617.511 56.9173 616.316 57.4293 614.695 57.6L612.647 57.856C606.844 58.368 602.364 60.2453 599.207 63.488C596.135 66.6453 594.599 70.9973 594.599 76.544V107.52C594.599 109.227 594.13 110.549 593.191 111.488C592.338 112.427 591.058 112.896 589.351 112.896ZM635.098 112.896C633.391 112.896 632.111 112.427 631.258 111.488C630.405 110.549 629.978 109.227 629.978 107.52V54.144C629.978 52.4373 630.405 51.1573 631.258 50.304C632.111 49.3653 633.349 48.896 634.97 48.896C636.591 48.896 637.829 49.3653 638.682 50.304C639.621 51.1573 640.09 52.4373 640.09 54.144V65.152L638.682 63.616C640.474 58.6667 643.375 54.9547 647.386 52.48C651.482 49.92 656.175 48.64 661.466 48.64C666.415 48.64 670.511 49.536 673.754 51.328C677.082 53.12 679.557 55.8507 681.178 59.52C682.799 63.104 683.61 67.6693 683.61 73.216V107.52C683.61 109.227 683.141 110.549 682.202 111.488C681.349 112.427 680.111 112.896 678.49 112.896C676.783 112.896 675.461 112.427 674.522 111.488C673.669 110.549 673.242 109.227 673.242 107.52V73.856C673.242 68.0533 672.09 63.8293 669.786 61.184C667.567 58.4533 663.983 57.088 659.034 57.088C653.317 57.088 648.751 58.88 645.338 62.464C642.01 65.9627 640.346 70.656 640.346 76.544V107.52C640.346 111.104 638.597 112.896 635.098 112.896Z" fill="#285161"/>
<rect width="140" height="140" rx="24" fill="#F8D270"/>
<path d="M84.8077 35.5127C84.8077 35.5127 52.5 11.3941 35 18.9742C17.5 26.5544 17.5 71.3462 17.5 71.3462" stroke="#325060" stroke-width="3" stroke-linecap="round"/>
<path d="M34.7768 56.5386C34.7768 56.5386 11.0688 82.3673 19.1973 103.676C27.3257 124.985 70 122.402 70 122.402" stroke="#325060" stroke-width="3" stroke-linecap="round"/>
<path d="M52.5 102.981C52.5 102.981 86.8269 132.596 106.346 117.115C125.865 101.635 120.481 67.9807 120.481 67.9807" stroke="#325060" stroke-width="3" stroke-linecap="round"/>
<path d="M101.635 86.1541C101.635 86.1541 127.885 55.1926 117.788 35.6734C107.692 16.1541 66.6345 18.1734 66.6345 18.1734" stroke="#325060" stroke-width="3" stroke-linecap="round"/>
</svg>
